<svg xmlns="http://www.w3.org/2000/svg" width="1200" height="300" viewBox="0 0 1200 300">
  <style>
    .box{fill:#f8fafc;stroke:#1e3a8a;stroke-width:2;rx:12}
    .title{font:700 20px Arial;fill:#172554}
    .label{font:15px Arial;fill:#334155}
    .arrow{stroke:#2563eb;stroke-width:3;marker-end:url(#m)}
  </style>
  <defs><marker id="m" markerWidth="10" markerHeight="10" refX="9" refY="3" orient="auto"><path d="M0,0 L0,6 L9,3 z" fill="#2563eb"/></marker></defs>
  <rect class="box" x="30" y="65" width="200" height="150"/>
  <text class="title" x="60" y="100">Sources</text>
  <text class="label" x="60" y="130">users + content</text>
  <text class="label" x="60" y="157">watch events</text>
  <text class="label" x="60" y="184">search events</text>
  <line class="arrow" x1="230" y1="140" x2="300" y2="140"/>
  <rect class="box" x="305" y="65" width="200" height="150"/>
  <text class="title" x="335" y="100">Bronze</text>
  <text class="label" x="335" y="140">immutable typed</text>
  <text class="label" x="335" y="167">daily partitions</text>
  <line class="arrow" x1="505" y1="140" x2="575" y2="140"/>
  <rect class="box" x="580" y="65" width="200" height="150"/>
  <text class="title" x="610" y="100">Silver</text>
  <text class="label" x="610" y="140">deduplicate + DQ</text>
  <text class="label" x="610" y="167">clean + quarantine</text>
  <line class="arrow" x1="780" y1="140" x2="850" y2="140"/>
  <rect class="box" x="855" y="65" width="315" height="150"/>
  <text class="title" x="885" y="100">Gold / Power BI</text>
  <text class="label" x="885" y="135">Customer 360 + content KPIs</text>
  <text class="label" x="885" y="162">search trends + CSV exports</text>
  <text class="label" x="885" y="189">quality evidence</text>
</svg>
